<svg width="50" height="50" viewBox="0 0 50 50" fill="none" xmlns="http://www.w3.org/2000/svg">
<rect width="50" height="50" rx="6.30769" fill="#00B2FF" fill-opacity="0.19"/>
<path d="M13.9617 17.714C15.3572 17.1309 17.3582 16.5027 19.3038 16.3065C21.4016 16.0949 23.181 16.406 24.2117 17.4919V32.8603C22.7374 32.0245 20.8696 31.9098 19.1455 32.0837C17.2842 32.2714 15.4088 32.8108 13.9617 33.3626V17.714ZM25.7886 17.4919C26.8193 16.406 28.5987 16.0949 30.6965 16.3065C32.6421 16.5027 34.6431 17.1309 36.0386 17.714V33.3626C34.5915 32.8108 32.7161 32.2714 30.8548 32.0837C29.1307 31.9098 27.2629 32.0245 25.7886 32.8603V17.4919ZM25.0002 16.0669C23.447 14.7319 21.1948 14.5308 19.1455 14.7375C16.7579 14.9784 14.3474 15.7977 12.847 16.4797C12.5655 16.6076 12.3848 16.8883 12.3848 17.1975V34.5437C12.3848 34.8117 12.521 35.0614 12.7464 35.2066C12.9718 35.3517 13.2554 35.3724 13.4995 35.2614C14.8901 34.6294 17.1315 33.8718 19.3038 33.6527C21.5241 33.4287 23.3877 33.7902 24.3845 35.0362C24.5341 35.2232 24.7606 35.3321 25.0002 35.3321C25.2397 35.3321 25.4662 35.2232 25.6158 35.0362C26.6126 33.7902 28.4762 33.4287 30.6965 33.6527C32.8688 33.8718 35.1102 34.6294 36.5008 35.2614C36.7449 35.3724 37.0285 35.3517 37.2539 35.2066C37.4793 35.0614 37.6155 34.8117 37.6155 34.5437V17.1975C37.6155 16.8883 37.4348 16.6076 37.1533 16.4797C35.6529 15.7977 33.2424 14.9784 30.8548 14.7375C28.8055 14.5308 26.5533 14.7319 25.0002 16.0669Z" fill="#00B3FF"/>
</svg>
