<svg width="50" height="50" viewBox="0 0 50 50" fill="none" xmlns="http://www.w3.org/2000/svg">
<rect width="50" height="50" rx="6.30769" fill="#00FF09" fill-opacity="0.13"/>
<path d="M24.8789 25.1208L30.7513 19.2484M30.7513 19.2484C31.2392 18.7606 31.5137 18.099 31.5138 17.409V15.6606C31.514 14.9706 31.7882 14.3089 32.2762 13.8211L33.7254 12.3719C33.9686 12.1335 34.2955 12 34.636 12C34.9765 12 35.3035 12.1335 35.5467 12.3719L37.6281 14.4534C37.8665 14.6965 38 15.0235 38 15.364C38 15.7045 37.8665 16.0315 37.6281 16.2746L36.1789 17.7239C35.6911 18.2118 35.0294 18.4861 34.3394 18.4862H32.591C31.901 18.4864 31.2391 18.7605 30.7513 19.2484ZM17.2037 30.1945L19.8055 32.7963M20.1047 22.1938C20.4003 21.4815 20.9004 20.8727 21.5418 20.4444C22.1831 20.016 22.937 19.7873 23.7082 19.7871C25.4334 19.7871 27.0878 20.4724 28.3077 21.6923C29.5275 22.9121 30.2128 24.5666 30.2128 26.2917C30.2126 27.063 29.9839 27.8168 29.5556 28.4582C29.1272 29.0996 28.5185 29.5996 27.8061 29.8953L26.6093 30.3896C26.1345 30.5877 25.7291 30.922 25.4443 31.3504C25.1595 31.7787 25.0081 32.2819 25.0092 32.7963C25.0092 34.1764 24.4609 35.5 23.485 36.4759C22.5092 37.4518 21.1856 38 19.8055 38C17.7353 38 15.75 37.1776 14.2862 35.7138C12.8224 34.25 12 32.2646 12 30.1945C12 28.8144 12.5482 27.4908 13.5241 26.5149C14.5 25.539 15.8236 24.9908 17.2037 24.9908C17.7181 24.9919 18.2212 24.8404 18.6496 24.5556C19.078 24.2708 19.4123 23.8654 19.6104 23.3907L20.1047 22.1938Z" stroke="#00A735" stroke-width="1.8" stroke-linecap="round" stroke-linejoin="round"/>
</svg>
