<svg width="50" height="50" viewBox="0 0 50 50" fill="none" xmlns="http://www.w3.org/2000/svg">
<rect width="50" height="50" rx="6.30769" fill="#FFAE00" fill-opacity="0.19"/>
<path d="M23.8012 23.2001L27.401 26.7998M22.5642 31.6366L36.254 17.9492C36.7316 17.4716 37 16.8237 37 16.1482C37 15.4726 36.7316 14.8248 36.254 14.3471C35.7763 13.8694 35.1284 13.6011 34.4529 13.6011C33.7774 13.6011 33.1295 13.8694 32.6518 14.3471L18.9621 28.0369M18.4017 36.3991C19.2324 36.3991 20.0443 36.1528 20.735 35.6913C21.4256 35.2298 21.9639 34.5739 22.2818 33.8066C22.5996 33.0392 22.6828 32.1947 22.5207 31.3801C22.3587 30.5654 21.9587 29.8171 21.3714 29.2298C20.784 28.6424 20.0357 28.2425 19.2211 28.0804C18.4064 27.9184 17.562 28.0015 16.7946 28.3194C16.0272 28.6373 15.3713 29.1755 14.9098 29.8662C14.4484 30.5568 14.2021 31.3688 14.2021 32.1994C14.2023 32.998 13.8985 33.7668 13.3525 34.3496C13.1843 34.5175 13.0697 34.7315 13.0232 34.9645C12.9767 35.1975 13.0005 35.4391 13.0915 35.6587C13.1825 35.8782 13.3366 36.0657 13.5343 36.1976C13.732 36.3294 13.9644 36.3995 14.2021 36.3991H18.4017Z" stroke="#FFAE00" stroke-width="1.3" stroke-linecap="round" stroke-linejoin="round"/>
</svg>
